# xmcd CD database file
#
# Track frame offsets:
#	150
#	9700
#	25887
#	39297
#	53795
#	63735
#	77517
#	94877
#	107270
#	123552
#	135522
#	148422
#	161197
#	174790
#	192022
#	205545
#	218010
#	228700
#	239590
#	255470
#	266932
#	288750
#
# Disc length: 4048 seconds
#
# Revision: 3
# Processed by: cddbd v1.5.2PL0 Copyright (c) Steve Scherf et al.
# Submitted via: CDex 2.06
#
DISCID=370fce16
DTITLE=Beastie Boys - Hello Nasty
DYEAR=1998
DGENRE=Hip-Hop
TTITLE0=Super Disco Breakin'
TTITLE1=The Move
TTITLE2=Remote Control
TTITLE3=Song For The Man
TTITLE4=Just A Test
TTITLE5=Body Movin'
TTITLE6=Intergalactic
TTITLE7=Sneakin' Out The Hospital
TTITLE8=Putting Shame In Your Game
TTITLE9=Flowin' Prose
TTITLE10=And Me
TTITLE11=Three MC's And One DJ
TTITLE12=Can't, Won't, Don't Stop
TTITLE13=Song For Junior
TTITLE14=I Don't Know
TTITLE15=The Negotiation Limerick File
TTITLE16=Electrify
TTITLE17=Picture This
TTITLE18=Unite
TTITLE19=Dedication
TTITLE20=Dr. Lee, Phd
TTITLE21=Instant Death
EXTD=YEAR: 1998
EXTT0=
EXTT1=
EXTT2=
EXTT3=
EXTT4=
EXTT5=
EXTT6=
EXTT7=
EXTT8=
EXTT9=
EXTT10=
EXTT11=
EXTT12=
EXTT13=
EXTT14=
EXTT15=
EXTT16=
EXTT17=
EXTT18=
EXTT19=
EXTT20=
EXTT21=
PLAYORDER=
